<mxfile host="Electron" modified="2024-08-30T10:14:26.536Z" agent="Mozilla/5.0 (Windows NT 10.0; Win64; x64) AppleWebKit/537.36 (KHTML, like Gecko) draw.io/24.5.3 Chrome/124.0.6367.207 Electron/30.0.6 Safari/537.36" etag="woEwhDfFiusn3zARpYvW" version="24.5.3" type="device">
  <diagram name="Page-1" id="faUnJUujcjYzaFfWnSVf">
    <mxGraphModel dx="811" dy="470" grid="1" gridSize="10" guides="1" tooltips="1" connect="1" arrows="1" fold="1" page="1" pageScale="1" pageWidth="850" pageHeight="1100" math="0" shadow="0">
      <root>
        <mxCell id="0" />
        <mxCell id="1" parent="0" />
        <mxCell id="PFOlJ6qKw8SEMlRd-Y3k-12" value="User" style="shape=umlActor;verticalLabelPosition=bottom;verticalAlign=top;html=1;fillColor=#1ba1e2;fontColor=#ffffff;strokeColor=#006EAF;" vertex="1" parent="1">
          <mxGeometry x="20" y="130" width="50" height="100" as="geometry" />
        </mxCell>
        <mxCell id="PFOlJ6qKw8SEMlRd-Y3k-28" value="&lt;font style=&quot;font-size: 7px;&quot;&gt;Ajouter paire&lt;/font&gt;" style="ellipse;whiteSpace=wrap;html=1;" vertex="1" parent="1">
          <mxGeometry x="210" width="90" height="30" as="geometry" />
        </mxCell>
        <mxCell id="PFOlJ6qKw8SEMlRd-Y3k-29" value="&lt;font style=&quot;font-size: 7px;&quot;&gt;Enlever paire de service active&lt;/font&gt;" style="ellipse;whiteSpace=wrap;html=1;" vertex="1" parent="1">
          <mxGeometry x="310" y="10" width="85" height="40" as="geometry" />
        </mxCell>
        <mxCell id="PFOlJ6qKw8SEMlRd-Y3k-30" value="&lt;font style=&quot;font-size: 7px;&quot;&gt;Envoyer notifications concernant des limites d&#39;usage sur une paire&lt;/font&gt;" style="ellipse;whiteSpace=wrap;html=1;" vertex="1" parent="1">
          <mxGeometry x="100" y="370" width="130" height="70" as="geometry" />
        </mxCell>
        <mxCell id="PFOlJ6qKw8SEMlRd-Y3k-31" value="&lt;font style=&quot;font-size: 7px;&quot;&gt;Modifier Chaussure Infos&lt;/font&gt;" style="ellipse;whiteSpace=wrap;html=1;" vertex="1" parent="1">
          <mxGeometry x="312.5" y="80" width="100" height="40" as="geometry" />
        </mxCell>
        <mxCell id="PFOlJ6qKw8SEMlRd-Y3k-32" value="&lt;font style=&quot;font-size: 7px;&quot;&gt;Gerer Chaussures&lt;/font&gt;" style="ellipse;whiteSpace=wrap;html=1;" vertex="1" parent="1">
          <mxGeometry x="90" y="60" width="130" height="70" as="geometry" />
        </mxCell>
        <mxCell id="PFOlJ6qKw8SEMlRd-Y3k-33" value="&lt;font style=&quot;font-size: 7px;&quot;&gt;Gerer Courses&lt;/font&gt;" style="ellipse;whiteSpace=wrap;html=1;" vertex="1" parent="1">
          <mxGeometry x="90" y="215" width="130" height="80" as="geometry" />
        </mxCell>
        <mxCell id="PFOlJ6qKw8SEMlRd-Y3k-34" value="&lt;font style=&quot;font-size: 7px;&quot;&gt;Ajouter course&lt;/font&gt;" style="ellipse;whiteSpace=wrap;html=1;" vertex="1" parent="1">
          <mxGeometry x="242.5" y="190" width="90" height="30" as="geometry" />
        </mxCell>
        <mxCell id="PFOlJ6qKw8SEMlRd-Y3k-35" value="&lt;font style=&quot;font-size: 7px;&quot;&gt;Modifier course infos&lt;/font&gt;" style="ellipse;whiteSpace=wrap;html=1;" vertex="1" parent="1">
          <mxGeometry x="290" y="255" width="90" height="40" as="geometry" />
        </mxCell>
        <mxCell id="PFOlJ6qKw8SEMlRd-Y3k-36" value="&lt;font style=&quot;font-size: 7px;&quot;&gt;Supprimer paire&lt;/font&gt;" style="ellipse;whiteSpace=wrap;html=1;" vertex="1" parent="1">
          <mxGeometry x="395" y="40" width="90" height="30" as="geometry" />
        </mxCell>
        <mxCell id="PFOlJ6qKw8SEMlRd-Y3k-37" value="&lt;font style=&quot;font-size: 7px;&quot;&gt;Supprimer course&lt;/font&gt;" style="ellipse;whiteSpace=wrap;html=1;" vertex="1" parent="1">
          <mxGeometry x="360" y="220" width="90" height="30" as="geometry" />
        </mxCell>
        <mxCell id="PFOlJ6qKw8SEMlRd-Y3k-38" value="&lt;font style=&quot;font-size: 7px;&quot;&gt;Consulter statistiques des courses&lt;/font&gt;" style="ellipse;whiteSpace=wrap;html=1;" vertex="1" parent="1">
          <mxGeometry x="300" y="310" width="97.5" height="40" as="geometry" />
        </mxCell>
        <mxCell id="PFOlJ6qKw8SEMlRd-Y3k-39" value="&lt;font style=&quot;font-size: 7px;&quot;&gt;Consulter l&#39;usage des chaussures&lt;/font&gt;" style="ellipse;whiteSpace=wrap;html=1;" vertex="1" parent="1">
          <mxGeometry x="330" y="130" width="97.5" height="40" as="geometry" />
        </mxCell>
        <mxCell id="PFOlJ6qKw8SEMlRd-Y3k-52" value="&lt;font color=&quot;#00ff00&quot; style=&quot;font-size: 6px;&quot;&gt;&amp;lt;&amp;lt;extend&amp;gt;&amp;gt;&lt;/font&gt;" style="html=1;verticalAlign=bottom;labelBackgroundColor=none;endArrow=open;endFill=0;dashed=1;rounded=0;" edge="1" parent="1" source="PFOlJ6qKw8SEMlRd-Y3k-28" target="PFOlJ6qKw8SEMlRd-Y3k-32">
          <mxGeometry width="160" relative="1" as="geometry">
            <mxPoint x="250" y="190" as="sourcePoint" />
            <mxPoint x="410" y="190" as="targetPoint" />
          </mxGeometry>
        </mxCell>
        <mxCell id="PFOlJ6qKw8SEMlRd-Y3k-54" value="&lt;font color=&quot;#33ff33&quot; style=&quot;font-size: 6px;&quot;&gt;&amp;lt;&amp;lt;extend&amp;gt;&amp;gt;&lt;/font&gt;" style="html=1;verticalAlign=bottom;labelBackgroundColor=none;endArrow=open;endFill=0;dashed=1;rounded=0;" edge="1" parent="1" source="PFOlJ6qKw8SEMlRd-Y3k-36" target="PFOlJ6qKw8SEMlRd-Y3k-32">
          <mxGeometry width="160" relative="1" as="geometry">
            <mxPoint x="345" y="74" as="sourcePoint" />
            <mxPoint x="280" y="72" as="targetPoint" />
          </mxGeometry>
        </mxCell>
        <mxCell id="PFOlJ6qKw8SEMlRd-Y3k-55" value="&lt;font style=&quot;font-size: 7px;&quot;&gt;Verifier existance paire&lt;/font&gt;" style="ellipse;whiteSpace=wrap;html=1;" vertex="1" parent="1">
          <mxGeometry x="580" y="70" width="90" height="40" as="geometry" />
        </mxCell>
        <mxCell id="PFOlJ6qKw8SEMlRd-Y3k-56" value="&lt;font color=&quot;#ff0000&quot; style=&quot;font-size: 6px;&quot;&gt;&amp;lt;&amp;lt;include&amp;gt;&amp;gt;&lt;/font&gt;" style="html=1;verticalAlign=bottom;labelBackgroundColor=none;endArrow=open;endFill=0;dashed=1;rounded=0;" edge="1" parent="1" source="PFOlJ6qKw8SEMlRd-Y3k-36" target="PFOlJ6qKw8SEMlRd-Y3k-55">
          <mxGeometry width="160" relative="1" as="geometry">
            <mxPoint x="250" y="200" as="sourcePoint" />
            <mxPoint x="410" y="200" as="targetPoint" />
          </mxGeometry>
        </mxCell>
        <mxCell id="PFOlJ6qKw8SEMlRd-Y3k-57" value="&lt;font color=&quot;#33ff33&quot; style=&quot;font-size: 6px;&quot;&gt;&amp;lt;&amp;lt;extend&amp;gt;&amp;gt;&lt;/font&gt;" style="html=1;verticalAlign=bottom;labelBackgroundColor=none;endArrow=open;endFill=0;dashed=1;rounded=0;" edge="1" parent="1" source="PFOlJ6qKw8SEMlRd-Y3k-39" target="PFOlJ6qKw8SEMlRd-Y3k-32">
          <mxGeometry width="160" relative="1" as="geometry">
            <mxPoint x="464" y="31" as="sourcePoint" />
            <mxPoint x="278" y="60" as="targetPoint" />
          </mxGeometry>
        </mxCell>
        <mxCell id="PFOlJ6qKw8SEMlRd-Y3k-58" value="&lt;font color=&quot;#33ff33&quot; style=&quot;font-size: 6px;&quot;&gt;&amp;lt;&amp;lt;extend&amp;gt;&amp;gt;&lt;/font&gt;" style="html=1;verticalAlign=bottom;labelBackgroundColor=none;endArrow=open;endFill=0;dashed=1;rounded=0;" edge="1" parent="1" source="PFOlJ6qKw8SEMlRd-Y3k-31" target="PFOlJ6qKw8SEMlRd-Y3k-32">
          <mxGeometry width="160" relative="1" as="geometry">
            <mxPoint x="289" y="123" as="sourcePoint" />
            <mxPoint x="257" y="100" as="targetPoint" />
          </mxGeometry>
        </mxCell>
        <mxCell id="PFOlJ6qKw8SEMlRd-Y3k-59" value="&lt;font color=&quot;#ff0000&quot; style=&quot;font-size: 6px;&quot;&gt;&amp;lt;&amp;lt;include&amp;gt;&amp;gt;&lt;/font&gt;" style="html=1;verticalAlign=bottom;labelBackgroundColor=none;endArrow=open;endFill=0;dashed=1;rounded=0;" edge="1" parent="1" source="PFOlJ6qKw8SEMlRd-Y3k-31" target="PFOlJ6qKw8SEMlRd-Y3k-55">
          <mxGeometry width="160" relative="1" as="geometry">
            <mxPoint x="539" y="35" as="sourcePoint" />
            <mxPoint x="550" y="60" as="targetPoint" />
            <Array as="points" />
          </mxGeometry>
        </mxCell>
        <mxCell id="PFOlJ6qKw8SEMlRd-Y3k-60" value="&lt;font color=&quot;#ff0000&quot; style=&quot;font-size: 6px;&quot;&gt;&amp;lt;&amp;lt;include&amp;gt;&amp;gt;&lt;/font&gt;" style="html=1;verticalAlign=bottom;labelBackgroundColor=none;endArrow=open;endFill=0;dashed=1;rounded=0;" edge="1" parent="1" source="PFOlJ6qKw8SEMlRd-Y3k-39" target="PFOlJ6qKw8SEMlRd-Y3k-55">
          <mxGeometry width="160" relative="1" as="geometry">
            <mxPoint x="467" y="115" as="sourcePoint" />
            <mxPoint x="582" y="66" as="targetPoint" />
            <Array as="points">
              <mxPoint x="440" y="140" />
            </Array>
          </mxGeometry>
        </mxCell>
        <mxCell id="PFOlJ6qKw8SEMlRd-Y3k-61" value="Acteur Systeme" style="whiteSpace=wrap;html=1;aspect=fixed;fillColor=#1ba1e2;fontColor=#ffffff;strokeColor=#006EAF;" vertex="1" parent="1">
          <mxGeometry x="20" y="380" width="50" height="50" as="geometry" />
        </mxCell>
        <mxCell id="PFOlJ6qKw8SEMlRd-Y3k-62" value="&lt;font color=&quot;#33ff33&quot; style=&quot;font-size: 6px;&quot;&gt;&amp;lt;&amp;lt;extend&amp;gt;&amp;gt;&lt;/font&gt;" style="html=1;verticalAlign=bottom;labelBackgroundColor=none;endArrow=open;endFill=0;dashed=1;rounded=0;" edge="1" parent="1" source="PFOlJ6qKw8SEMlRd-Y3k-34" target="PFOlJ6qKw8SEMlRd-Y3k-33">
          <mxGeometry width="160" relative="1" as="geometry">
            <mxPoint x="283" y="132" as="sourcePoint" />
            <mxPoint x="251" y="103" as="targetPoint" />
            <Array as="points" />
          </mxGeometry>
        </mxCell>
        <mxCell id="PFOlJ6qKw8SEMlRd-Y3k-65" value="&lt;font color=&quot;#33ff33&quot; style=&quot;font-size: 6px;&quot;&gt;&amp;lt;&amp;lt;extend&amp;gt;&amp;gt;&lt;/font&gt;" style="html=1;verticalAlign=bottom;labelBackgroundColor=none;endArrow=open;endFill=0;dashed=1;rounded=0;" edge="1" parent="1" source="PFOlJ6qKw8SEMlRd-Y3k-37" target="PFOlJ6qKw8SEMlRd-Y3k-33">
          <mxGeometry width="160" relative="1" as="geometry">
            <mxPoint x="330" y="70" as="sourcePoint" />
            <mxPoint x="280" y="70" as="targetPoint" />
          </mxGeometry>
        </mxCell>
        <mxCell id="PFOlJ6qKw8SEMlRd-Y3k-66" value="&lt;font style=&quot;font-size: 7px;&quot;&gt;Parcourir usage tous paires chaussures&lt;/font&gt;" style="ellipse;whiteSpace=wrap;html=1;" vertex="1" parent="1">
          <mxGeometry x="280" y="380" width="80" height="50" as="geometry" />
        </mxCell>
        <mxCell id="PFOlJ6qKw8SEMlRd-Y3k-67" value="&lt;font color=&quot;#ff0000&quot;&gt;&lt;font style=&quot;font-size: 7px;&quot;&gt;&amp;lt;&amp;lt;&lt;/font&gt;&lt;font style=&quot;font-size: 6px;&quot;&gt;include&lt;/font&gt;&lt;font style=&quot;font-size: 7px;&quot;&gt;&amp;gt;&amp;gt;&lt;/font&gt;&lt;/font&gt;" style="html=1;verticalAlign=bottom;labelBackgroundColor=none;endArrow=open;endFill=0;dashed=1;rounded=0;" edge="1" parent="1" source="PFOlJ6qKw8SEMlRd-Y3k-30" target="PFOlJ6qKw8SEMlRd-Y3k-66">
          <mxGeometry width="160" relative="1" as="geometry">
            <mxPoint x="462" y="230" as="sourcePoint" />
            <mxPoint x="332" y="165" as="targetPoint" />
          </mxGeometry>
        </mxCell>
        <mxCell id="PFOlJ6qKw8SEMlRd-Y3k-68" value="&lt;font style=&quot;font-size: 7px;&quot;&gt;Verifier existance course&lt;/font&gt;" style="ellipse;whiteSpace=wrap;html=1;" vertex="1" parent="1">
          <mxGeometry x="577.5" y="250" width="95" height="40" as="geometry" />
        </mxCell>
        <mxCell id="PFOlJ6qKw8SEMlRd-Y3k-69" value="&lt;font color=&quot;#33ff33&quot; style=&quot;font-size: 6px;&quot;&gt;&amp;lt;&amp;lt;extend&amp;gt;&amp;gt;&lt;/font&gt;" style="html=1;verticalAlign=bottom;labelBackgroundColor=none;endArrow=open;endFill=0;dashed=1;rounded=0;" edge="1" parent="1" source="PFOlJ6qKw8SEMlRd-Y3k-35" target="PFOlJ6qKw8SEMlRd-Y3k-33">
          <mxGeometry width="160" relative="1" as="geometry">
            <mxPoint x="394" y="119" as="sourcePoint" />
            <mxPoint x="274" y="86" as="targetPoint" />
          </mxGeometry>
        </mxCell>
        <mxCell id="PFOlJ6qKw8SEMlRd-Y3k-70" value="&lt;font color=&quot;#ff0000&quot; style=&quot;font-size: 6px;&quot;&gt;&amp;lt;&amp;lt;include&amp;gt;&amp;gt;&lt;/font&gt;" style="html=1;verticalAlign=bottom;labelBackgroundColor=none;endArrow=open;endFill=0;dashed=1;rounded=0;" edge="1" parent="1" source="PFOlJ6qKw8SEMlRd-Y3k-35" target="PFOlJ6qKw8SEMlRd-Y3k-68">
          <mxGeometry width="160" relative="1" as="geometry">
            <mxPoint x="467" y="115" as="sourcePoint" />
            <mxPoint x="582" y="66" as="targetPoint" />
          </mxGeometry>
        </mxCell>
        <mxCell id="PFOlJ6qKw8SEMlRd-Y3k-71" value="&lt;font color=&quot;#ff0000&quot; style=&quot;font-size: 6px;&quot;&gt;&amp;lt;&amp;lt;include&amp;gt;&amp;gt;&lt;/font&gt;" style="html=1;verticalAlign=bottom;labelBackgroundColor=none;endArrow=open;endFill=0;dashed=1;rounded=0;" edge="1" parent="1" source="PFOlJ6qKw8SEMlRd-Y3k-37" target="PFOlJ6qKw8SEMlRd-Y3k-68">
          <mxGeometry width="160" relative="1" as="geometry">
            <mxPoint x="517" y="33" as="sourcePoint" />
            <mxPoint x="576" y="47" as="targetPoint" />
          </mxGeometry>
        </mxCell>
        <mxCell id="PFOlJ6qKw8SEMlRd-Y3k-72" value="&lt;font color=&quot;#ff0000&quot; style=&quot;font-size: 6px;&quot;&gt;&amp;lt;&amp;lt;include&amp;gt;&amp;gt;&lt;/font&gt;" style="html=1;verticalAlign=bottom;labelBackgroundColor=none;endArrow=open;endFill=0;dashed=1;rounded=0;" edge="1" parent="1" source="PFOlJ6qKw8SEMlRd-Y3k-38" target="PFOlJ6qKw8SEMlRd-Y3k-68">
          <mxGeometry width="160" relative="1" as="geometry">
            <mxPoint x="333" y="136" as="sourcePoint" />
            <mxPoint x="574" y="62" as="targetPoint" />
          </mxGeometry>
        </mxCell>
        <mxCell id="PFOlJ6qKw8SEMlRd-Y3k-73" value="&lt;font color=&quot;#ff0000&quot; style=&quot;font-size: 6px;&quot;&gt;&amp;lt;&amp;lt;include&amp;gt;&amp;gt;&lt;/font&gt;" style="html=1;verticalAlign=bottom;labelBackgroundColor=none;endArrow=open;endFill=0;dashed=1;rounded=0;" edge="1" parent="1" source="PFOlJ6qKw8SEMlRd-Y3k-29" target="PFOlJ6qKw8SEMlRd-Y3k-55">
          <mxGeometry width="160" relative="1" as="geometry">
            <mxPoint x="494" y="48" as="sourcePoint" />
            <mxPoint x="571" y="53" as="targetPoint" />
            <Array as="points">
              <mxPoint x="450" y="20" />
            </Array>
          </mxGeometry>
        </mxCell>
        <mxCell id="PFOlJ6qKw8SEMlRd-Y3k-74" value="&lt;font color=&quot;#33ff33&quot; style=&quot;font-size: 6px;&quot;&gt;&amp;lt;&amp;lt;extend&amp;gt;&amp;gt;&lt;/font&gt;" style="html=1;verticalAlign=bottom;labelBackgroundColor=none;endArrow=open;endFill=0;dashed=1;rounded=0;" edge="1" parent="1" source="PFOlJ6qKw8SEMlRd-Y3k-29" target="PFOlJ6qKw8SEMlRd-Y3k-32">
          <mxGeometry width="160" relative="1" as="geometry">
            <mxPoint x="383" y="93" as="sourcePoint" />
            <mxPoint x="278" y="79" as="targetPoint" />
            <Array as="points" />
          </mxGeometry>
        </mxCell>
        <mxCell id="PFOlJ6qKw8SEMlRd-Y3k-75" value="&lt;font color=&quot;#33ff33&quot; style=&quot;font-size: 6px;&quot;&gt;&amp;lt;&amp;lt;extend&amp;gt;&amp;gt;&lt;/font&gt;" style="html=1;verticalAlign=bottom;labelBackgroundColor=none;endArrow=open;endFill=0;dashed=1;rounded=0;" edge="1" parent="1" source="PFOlJ6qKw8SEMlRd-Y3k-38" target="PFOlJ6qKw8SEMlRd-Y3k-33">
          <mxGeometry width="160" relative="1" as="geometry">
            <mxPoint x="257" y="362" as="sourcePoint" />
            <mxPoint x="197" y="352" as="targetPoint" />
          </mxGeometry>
        </mxCell>
        <mxCell id="PFOlJ6qKw8SEMlRd-Y3k-76" value="" style="endArrow=none;html=1;rounded=0;" edge="1" parent="1" source="PFOlJ6qKw8SEMlRd-Y3k-33" target="PFOlJ6qKw8SEMlRd-Y3k-12">
          <mxGeometry width="50" height="50" relative="1" as="geometry">
            <mxPoint x="330" y="330" as="sourcePoint" />
            <mxPoint x="380" y="280" as="targetPoint" />
            <Array as="points" />
          </mxGeometry>
        </mxCell>
        <mxCell id="PFOlJ6qKw8SEMlRd-Y3k-77" value="" style="endArrow=none;html=1;rounded=0;" edge="1" parent="1" source="PFOlJ6qKw8SEMlRd-Y3k-12" target="PFOlJ6qKw8SEMlRd-Y3k-32">
          <mxGeometry width="50" height="50" relative="1" as="geometry">
            <mxPoint x="330" y="190" as="sourcePoint" />
            <mxPoint x="380" y="140" as="targetPoint" />
          </mxGeometry>
        </mxCell>
        <mxCell id="PFOlJ6qKw8SEMlRd-Y3k-78" value="" style="endArrow=none;html=1;rounded=0;" edge="1" parent="1" source="PFOlJ6qKw8SEMlRd-Y3k-30" target="PFOlJ6qKw8SEMlRd-Y3k-61">
          <mxGeometry width="50" height="50" relative="1" as="geometry">
            <mxPoint x="320" y="340" as="sourcePoint" />
            <mxPoint x="370" y="290" as="targetPoint" />
          </mxGeometry>
        </mxCell>
      </root>
    </mxGraphModel>
  </diagram>
</mxfile>
